<svg version="1.1" xmlns="http://www.w3.org/2000/svg" width="28" height="32" viewBox="0 0 28 32">
<title>Git Reopend</title>
<path d="M16 18h-4v-10h4v10zM12 24h4v-4h-4v4zM24.656 20h-4.656l3 3c-2.094 2.656-5.344 4.406-9 4.406-6.281 0-11.406-5.125-11.406-11.406 0-0.688 0.063-1.344 0.188-2h-2.625c-0.094 0.656-0.156 1.313-0.156 2 0 7.719 6.281 14 14 14 4.375 0 8.25-2.031 10.813-5.188l3.188 3.188v-8h-3.344zM3.344 12h4.656l-3-3c2.094-2.656 5.344-4.406 9-4.406 6.281 0 11.406 5.125 11.406 11.406 0 0.688-0.063 1.344-0.188 2h2.625c0.094-0.656 0.156-1.313 0.156-2 0-7.719-6.281-14-14-14-4.375 0-8.25 2.031-10.813 5.188l-3.188-3.188v8h3.344z"></path>
</svg>
