<svg version="1.1" xmlns="http://www.w3.org/2000/svg" width="28" height="32" viewBox="0 0 28 32">
<title>Git Tag</title>
<path d="M13.469 5.469c-0.938-0.938-2.219-1.469-3.531-1.469h-4.938c-2.75 0-5 2.25-5 5v4.938c0 1.313 0.531 2.594 1.469 3.531l12.125 12.125c0.781 0.781 2.031 0.781 2.813 0l9.188-9.188c0.781-0.781 0.781-2.031 0-2.813l-12.125-12.125zM2.75 16.188c-0.625-0.594-0.938-1.406-0.938-2.25v-4.938c0-1.75 1.438-3.188 3.188-3.188h4.938c0.844 0 1.656 0.313 2.25 0.938l12.281 12.25-9.469 9.469-12.25-12.281zM4 8h4v4h-4v-4z"></path>
</svg>
