<svg version="1.1" xmlns="http://www.w3.org/2000/svg" viewBox="0 0 50 50" width="32" height="32">
<title>Crunchyroll</title>
<path d="M 26 3 C 13.85 3 4 12.85 4 25 C 4 40.188 14.370094 44.536656 21.371094 45.972656 C 21.410094 45.980656 21.448375 45.984375 21.484375 45.984375 C 21.989375 45.984375 22.188734 45.253297 21.677734 45.029297 C 14.267734 41.788297 9.0301563 34.326141 10.160156 25.494141 C 11.256156 16.920141 18.244938 10.069141 26.835938 9.1191406 C 27.564937 9.0381406 28.287 9 29 9 C 36.541 9 43.044422 13.395672 46.107422 19.763672 C 46.206422 19.968672 46.382594 20.058594 46.558594 20.058594 C 46.853594 20.058594 47.144828 19.8075 47.048828 19.4375 C 45.302828 12.7105 40 3 26 3 z M 26 5 C 32.168 5 36.419609 7.0278125 39.349609 9.7578125 C 36.241609 7.9888125 32.683 7 29 7 C 28.21 7 27.408234 7.0448125 26.615234 7.1328125 C 17.139234 8.1808125 9.3847344 15.795234 8.1777344 25.240234 C 7.5247344 30.349234 8.8466406 35.328625 11.681641 39.390625 C 7.9046406 36.080625 6 31.271 6 25 C 6 13.972 14.972 5 26 5 z M 30 14 C 21.481 14 14.619625 21.101031 15.015625 29.707031 C 15.366625 37.346031 21.653016 43.631422 29.291016 43.982422 C 29.528016 43.994422 29.766 44 30 44 C 38.285 44 45 37.285 45 29 C 45 27.819 44.860563 26.670359 44.601562 25.568359 C 44.542563 25.319359 44.332234 25.183594 44.115234 25.183594 C 43.961234 25.183594 43.806266 25.251484 43.697266 25.396484 C 42.512266 26.976484 40.627 28 38.5 28 C 38.397 28 38.293453 27.997188 38.189453 27.992188 C 35.031453 27.845188 32.348203 25.317875 32.033203 22.171875 C 31.763203 19.477875 33.142297 17.082328 35.279297 15.861328 C 35.656297 15.646328 35.62475 15.100266 35.21875 14.947266 C 33.59375 14.340266 31.838 14 30 14 z M 30 16 C 30.641 16 31.279156 16.047578 31.910156 16.142578 C 30.517156 17.858578 29.815922 20.090094 30.044922 22.371094 C 30.460922 26.521094 33.922656 29.796234 38.097656 29.990234 C 38.232656 29.996234 38.366 30 38.5 30 C 40.125 30 41.669094 29.55075 42.996094 28.71875 C 42.998094 28.81275 43 28.906 43 29 C 43 36.168 37.168 42 30 42 C 29.796 42 29.589812 41.995328 29.382812 41.986328 C 22.751812 41.681328 17.318672 36.248188 17.013672 29.617188 C 16.848672 26.023187 18.121656 22.616438 20.597656 20.023438 C 23.075656 17.429438 26.414 16 30 16 z M 45.296875 26.595703 L 45.300781 26.595703 L 45.296875 26.595703 z"/>
</svg>
