<svg version="1.1" xmlns="http://www.w3.org/2000/svg" width="32" height="32" viewBox="0 0 32 32">
<title>Dribbble</title>
<path d="M16 32c-8.836 0-16-7.164-16-16s7.164-16 16-16c8.836 0 16 7.164 16 16s-7.164 16-16 16zM30.589 17.94c-1.111-0.427-3.924-1.082-9.91-0.382 2.091 5.495 2.554 9.538 2.654 11.204 3.88-2.236 6.645-6.188 7.256-10.821zM16 30.72c2.149 0 4.188-0.463 6.028-1.29-0.145-1.729-0.687-6.081-2.672-11.535-8.188 2.659-11.608 8.151-12.429 9.691 2.501 1.961 5.649 3.133 9.073 3.133zM1.28 16c0 4.246 1.8 8.070 4.676 10.756 0.764-1.593 3.979-7.122 12.903-10.167-0.242-0.612-0.5-1.235-0.779-1.869-0.291-0.661-0.59-1.29-0.892-1.895-5.8 1.794-13.732 1.904-15.849 1.9-0.036 0.421-0.059 0.845-0.059 1.276zM1.503 13.46c2.173 0.037 9-0.022 15-1.949-2.721-4.999-5.597-7.845-6.726-8.85-4.28 2.001-7.438 6.001-8.273 10.8zM16 1.28c-1.668 0-3.27 0.28-4.764 0.792 1.194 1.184 3.806 4.079 6.479 9.019 6.025-2.234 7.975-5.27 8.309-5.866-2.628-2.446-6.15-3.945-10.024-3.945zM26.918 6.128c-0.536 0.863-2.917 4.232-8.513 6.285 0.32 0.634 0.639 1.293 0.955 1.987 0.287 0.631 0.552 1.245 0.799 1.846 5.643-0.833 9.169 0.009 10.543 0.463 0.011-0.235 0.018-0.472 0.018-0.71 0-3.799-1.44-7.261-3.802-9.872z"></path>
</svg>
