<svg version="1.1" xmlns="http://www.w3.org/2000/svg" width="32" height="32" viewBox="0 0 32 32">
<title>Facebook</title>
<path d="M19.25 9.361c0 0 0 1.497 0 1.497s5.63 0 5.63 0c0 0-0.999 7.499-0.999 7.499s-4.632 0-4.632 0c0 0 0 13.643 0 13.643s-7.634 0-7.634 0c0 0 0-13.643 0-13.643s-4.496 0-4.496 0c0 0 0-7.499 0-7.499s4.497 0 4.497 0c0 0 0-2.3 0-2.3 0-5.302 2.711-8.553 7.503-8.553 2.295 0 5.025-0.036 5.6 0.040 0 0 0 6.869 0 6.869s-3.324-0.001-3.324-0.001c-2.606 0-2.147 0.654-2.147 2.448zM23.774 1.15c-0.492-0.065-2.18-0.198-4.144-0.198-4.101 0-6.906 2.482-6.906 7.064 0 0 0 3.95 0 3.95s-4.657 0-4.657 0c0 0 0 5.335 0 5.335s4.656 0 4.656 0c0 0 0 13.752 0 13.752s5.561 0 5.561 0c0 0 0-13.752 0-13.752s4.611 0 4.611 0c0 0 0.693-5.335 0.693-5.335s-5.304 0-5.304 0c0 0 0-3.42 0-3.42 0-1.55 0.417-2.606 2.647-2.606 0 0 2.844 0.001 2.844 0.001s0-4.79 0-4.79z"></path>
</svg>
