<svg version="1.1" xmlns="http://www.w3.org/2000/svg" width="32" height="32" viewBox="0 0 32 32">
<title>Flickr</title>
<path d="M24.615 23.385c-4.078 0-7.385-3.306-7.385-7.385s3.306-7.385 7.385-7.385c4.078 0 7.385 3.306 7.385 7.385s-3.306 7.385-7.385 7.385zM24.615 9.928c-3.353 0-6.072 2.718-6.072 6.072s2.718 6.072 6.072 6.072c3.353 0 6.072-2.718 6.072-6.072s-2.718-6.072-6.072-6.072zM7.385 23.385c-4.078 0-7.385-3.306-7.385-7.385s3.306-7.385 7.385-7.385c4.078 0 7.385 3.306 7.385 7.385s-3.306 7.385-7.385 7.385zM7.385 9.928c-3.353 0-6.072 2.718-6.072 6.072s2.718 6.072 6.072 6.072c3.353 0 6.072-2.718 6.072-6.072s-2.718-6.072-6.072-6.072z"></path>
</svg>
