<svg version="1.1" xmlns="http://www.w3.org/2000/svg" width="20" height="32" viewBox="0 0 20 32">
<title>Git Branch</title>
<path d="M20 10c0-2.219-1.781-4-4-4s-4 1.781-4 4c0 1.469 0.813 2.75 2 3.438v0.594c-0.031 1.031-0.469 1.969-1.25 2.75s-1.719 1.219-2.75 1.25c-1.656 0.031-2.969 0.313-4 0.906v-9.5c1.188-0.688 2-1.969 2-3.438 0-2.219-1.781-4-4-4s-4 1.781-4 4c0 1.469 0.813 2.75 2 3.438v13.125c-1.188 0.688-2 1.969-2 3.438 0 2.219 1.781 4 4 4s4-1.781 4-4c0-1.063-0.406-2-1.063-2.719 0.188-0.125 0.969-0.813 1.188-0.938 0.5-0.219 1.125-0.344 1.875-0.344 2.094-0.094 3.906-0.906 5.5-2.5s2.406-3.969 2.5-6.031h-0.031c1.219-0.719 2.031-2 2.031-3.469zM4 3.594c1.313 0 2.406 1.094 2.406 2.406s-1.094 2.406-2.406 2.406-2.406-1.094-2.406-2.406 1.094-2.406 2.406-2.406zM4 28.406c-1.313 0-2.406-1.094-2.406-2.406s1.094-2.406 2.406-2.406 2.406 1.094 2.406 2.406-1.094 2.406-2.406 2.406zM16 12.406c-1.313 0-2.406-1.094-2.406-2.406s1.094-2.406 2.406-2.406 2.406 1.094 2.406 2.406-1.094 2.406-2.406 2.406z"></path>
</svg>
