<svg version="1.1" xmlns="http://www.w3.org/2000/svg" width="24" height="32" viewBox="0 0 24 32">
<title>Git Merge</title>
<path d="M20 14c-1.469 0-2.75 0.813-3.469 2.031v-0.031c-2.094-0.031-4.531-0.719-6.25-2.031-1.5-1.156-3-3.219-3.781-4.875 0.906-0.719 1.5-1.844 1.5-3.094 0-2.219-1.781-4-4-4s-4 1.781-4 4c0 1.469 0.813 2.75 2 3.438v13.125c-1.188 0.688-2 1.969-2 3.438 0 2.219 1.781 4 4 4s4-1.781 4-4c0-1.469-0.813-2.75-2-3.438v-7.219c1.344 1.406 2.875 2.531 4.594 3.375s4.063 1.25 5.938 1.281v-0.031c0.719 1.219 2 2.031 3.469 2.031 2.219 0 4-1.781 4-4s-1.781-4-4-4zM6.406 26c0 1.313-1.094 2.406-2.406 2.406s-2.406-1.094-2.406-2.406 1.094-2.406 2.406-2.406 2.406 1.094 2.406 2.406zM4 8.406c-1.313 0-2.406-1.094-2.406-2.406s1.094-2.406 2.406-2.406 2.406 1.094 2.406 2.406-1.094 2.406-2.406 2.406zM20 20.406c-1.313 0-2.406-1.094-2.406-2.406s1.094-2.406 2.406-2.406 2.406 1.094 2.406 2.406-1.094 2.406-2.406 2.406z"></path>
</svg>
