<svg version="1.1" xmlns="http://www.w3.org/2000/svg" width="32" height="32" viewBox="0 0 32 32">
<title>LinkedIn</title>
<path d="M6.947 9.213c0 0-6.033 0-6.033 0-0.413 0.002-0.772 0.428-0.769 0.834 0.022-0.078 0.014 21.157 0.014 21.157 0 0.417 0.343 0.686 0.755 0.686 0 0 6.034 0 6.034 0 0.413 0 0.694-0.268 0.694-0.686 0 0 0-21.174 0-21.174-0-0.418-0.281-0.817-0.695-0.817zM6.527 30.886c0 0-5.254 0-5.254 0s0-20.537 0-20.537c0 0 5.254 0 5.254 0s0 20.537 0 20.537zM23.721 8.915c-2.929 0-4.799 1.158-5.912 2.269 0 0-0.138-1.447-0.138-1.447-0.037-0.388-0.36-0.524-0.744-0.524 0 0-0.015 0-0.015 0s-5.451 0.021-5.451 0.021c-0.202 0.004-0.443 0.017-0.58 0.166s-0.216 0.63-0.216 0.63 0 21.174 0 21.174c0 0.417 0.412 0.633 0.825 0.633 0 0 5.874 0 5.874 0 0.413 0 0.625-0.216 0.625-0.633 0 0 0-12.259 0-12.259 0-0.63 0.052-1.321 0.159-1.592 0.375-0.968 1.759-2.070 3.184-2.070 1.846 0 3.184 1.761 3.184 4.139 0 0 0 11.781 0 11.781 0 0.417 0.238 0.633 0.651 0.633 0 0 5.927 0 5.927 0 0.413 0 0.748-0.179 0.748-0.597 0 0 0-12.628 0-12.628 0-6.148-3.066-9.698-8.122-9.698zM30.726 30.886c0 0-5.095 0-5.095 0s0-11.463 0-11.463c0-3.226-1.601-5.254-4.299-5.254-2.141 0-3.75 1.45-4.299 2.866-0.182 0.459-0.159 1.543-0.159 2.388 0 0 0 11.463 0 11.463s-5.095 0-5.095 0c0 0 0-20.537 0-20.537s4.776 0 4.776 0c0 0 0.085 2.19 0.085 2.19 0.037 0.388 0.2 0.683 0.585 0.683 0 0 0.127 0 0.127 0 0.258 0 0.497-0.134 0.635-0.355 0.441-0.712 2.272-2.836 5.892-2.836 4.182 0 6.846 3.637 6.846 8.915 0 0 0 11.94 0 11.94s0 0 0 0zM3.842-0.002c-2.313 0-3.841 1.608-3.841 3.824 0 2.215 1.494 3.822 3.761 3.822 2.337 0 3.881-1.607 3.881-3.839-0.052-2.241-1.526-3.807-3.802-3.807zM3.756 6.37c-1.558 0-2.484-1.047-2.484-2.546 0-1.524 0.936-2.549 2.568-2.549 1.597 0 2.491 1.007 2.527 2.549 0 1.523-0.953 2.546-2.611 2.546z"></path>
</svg>
