<svg version="1.1" xmlns="http://www.w3.org/2000/svg" width="32" height="32" viewBox="0 0 32 32">
<title>Spotify</title>
<path d="M16 32c-8.836 0-16-7.164-16-16s7.164-16 16-16c8.836 0 16 7.164 16 16s-7.164 16-16 16zM16 1.28c-8.13 0-14.72 6.59-14.72 14.72s6.59 14.72 14.72 14.72c8.13 0 14.72-6.59 14.72-14.72s-6.59-14.72-14.72-14.72zM27.52 14.080c-0.301 0.42-0.532 0.696-1.28 0.8-1.667-0.309-3.624-2.851-10.24-3.2s-7.599 0.426-8.32 0.64c-0.721 0.214-1.456 0.296-1.6 0.32s-1.018-0.338-1.12-1.12c-0.102-0.782 0.148-1.103 0.48-1.44s1.76-0.64 1.76-0.64c0 0 2.299-1.084 9.12-0.64s9.61 2.656 10.56 3.2c1.013 0.584 0.941 1.66 0.64 2.080zM6.72 15.68c0.228-0.093 3.944-1.224 9.12-0.8s8.96 2.72 8.96 2.72c0 0 0.765 0.826 0.48 1.44-0.269 0.581-0.478 0.645-1.12 0.64s-3.436-2.195-8.64-2.56c-5.204-0.365-7.453 0.8-8 0.8s-1.345-0.206-1.44-0.96c-0.095-0.754 0.389-1.178 0.64-1.28zM8.16 20.48c0 0 2.688-1.004 7.36-0.64s7.315 2.417 7.52 2.56c0.205 0.143 0.633 0.704 0.16 1.28s-1.12 0.32-1.12 0.32c0 0-3.064-2.176-6.88-2.4s-6.239 0.75-6.56 0.8c-0.321 0.050-1.143 0.036-1.28-0.8s0.8-1.12 0.8-1.12z"></path>
</svg>
