<svg version="1.1" xmlns="http://www.w3.org/2000/svg" width="32" height="32" viewBox="-3 -2 38 38">
<title>Foursquare</title>
<path d="M27.71 2.263c0 0-3.248 16.826-3.248 16.826-0.142 0.809-0.899 1.456-1.691 1.456 0 0-0.644 0-1.667 0-1.528 0-4.919 0-4.919 0s-8.438 10.044-8.913 10.353c-0.764 0.854-1.596 0.941-1.596 0.941-0.793 0-1.435-0.647-1.435-1.456 0 0 0-28.12 0-28.12 0-1.328 0.842-2.423 1.882-2.423 0 0 20.133 0 20.133 0 1.039 0 1.689 1.096 1.456 2.423zM5.933 1.534c0 0 0 28.424 0 28.424s8.844-10.541 8.844-10.541c0 0 0.506-0.565 1.317-0.565s6.774 0 6.774 0c0 0 1.505-7.906 1.505-7.906s-10.604 0-10.913 0c-0.309 0-0.564-0.387-0.564-0.565s-0.036-0.24 0-0.565 0.322-0.565 0.564-0.565c0.243 0 11.478 0 11.478 0s1.317-7.718 1.317-7.718c0 0-20.321 0-20.321 0z"></path>
</svg>
