<svg version="1.1" xmlns="http://www.w3.org/2000/svg" width="32" height="32" viewBox="0 0 32 32">
<title>Github</title>
<path d="M16 32c-8.836 0-16-7.164-16-16s7.164-16 16-16c8.836 0 16 7.164 16 16s-7.164 16-16 16zM12.96 27.486c0 1.706 0 2.914 0 2.914s1.447 0.32 3.2 0.32c1.753 0 2.88-0.32 2.88-0.32s-0.039-4.157 0-5.12c0.039-0.963-0.96-2.080-0.96-2.080s-0.899-1.287 0.285-1.333c2.418-0.095 6.435-1.073 6.435-5.707 0.163-3.926-1.76-4.8-1.76-4.8s0.866-2.866 0.32-3.52c-0.522-0.397-3.027 1.743-3.36 1.76s-1.872-0.575-4-0.64c-2.128-0.065-3.4 0.633-3.84 0.64s-3.042-1.98-3.68-1.76c-0.467 0.304 0.48 3.52 0.48 3.52s-1.769 1.151-1.76 4.8c0 4.532 3.574 5.412 6 5.698 1.408 0.158 0.481 1.415 0.481 1.415s-0.715 1.082-0.721 1.367c-0.026 1.263-1.545 1.384-2.72 1.44-0.958 0.045-1.483-0.5-2.060-0.93-0.175-0.131-1.22-1.669-1.514-1.947-0.459-0.435-0.905-0.647-0.905-0.643 0 0.017 0.574 0.332 1.121 1.085 0.359 0.494 0.848 1.464 1.031 1.677 0.339 0.395 1.056 1.077 2.328 1.077 0.728-0 2.061-0.28 2.211-0.296 0.4-0.044 0.509 1.169 0.509 1.382zM16 1.28c-8.13 0-14.72 6.59-14.72 14.72 0 6.801 4.613 12.521 10.88 14.211 0 0 0-3.331 0-3.331s-2.041 0.54-3.040 0.16c-0.999-0.38-1.252-0.127-2.72-2.88-0.571-1.137-1.203-1.11-1.76-1.76-0.012-0.119 0.057-0.494 0.48-0.48s1.117-0.138 2.080 0.8c0.78 0.755 0.854 1.766 2.4 2.4 0.816 0.152 1.25 0.309 2.56-0.32 0.183-1.367 0.96-2.080 0.96-2.080s-6.944 0.009-6.88-6.72c0-3.943 1.6-4.96 1.6-4.96s-0.958-2.432 0.16-4.16c2.909 0.484 4.16 1.76 4.16 1.76s1.982-0.64 3.932-0.64c1.889 0 3.748 0.64 3.748 0.64s2.288-2.044 4.16-1.6c1.009 1.816 0.16 4 0.16 4s1.6 1.304 1.6 4.64c0 7.245-7.040 7.040-7.040 7.040s1.12 1.045 1.12 2.24c0 0.916 0 3.905 0 5.251 6.267-1.689 10.88-7.41 10.88-14.211 0-8.13-6.59-14.72-14.72-14.72z"></path>
</svg>
