<svg version="1.1" xmlns="http://www.w3.org/2000/svg" width="24" height="32" viewBox="0 0 24 32">
<title>Git PR Icon</title>
<path d="M22 22.563c0-3.469 0-12.563 0-12.563-0.063-1.563-0.688-2.938-1.875-4.125s-2.563-1.813-4.125-1.875c0 0-2.031 0-2 0v-4l-6 6 6 6v-4h2c0.531 0.031 0.969 0.219 1.375 0.625s0.594 0.844 0.625 1.375v12.563c-1.188 0.688-2 1.969-2 3.438 0 2.219 1.781 4 4 4s4-1.781 4-4c0-1.469-0.813-2.75-2-3.438zM20 28.406c-1.313 0-2.406-1.094-2.406-2.406s1.094-2.406 2.406-2.406 2.406 1.094 2.406 2.406-1.094 2.406-2.406 2.406zM8 6c0-2.219-1.781-4-4-4s-4 1.781-4 4c0 1.469 0.813 2.75 2 3.438 0 3.094 0 11.125 0 13.125-1.188 0.688-2 1.969-2 3.438 0 2.219 1.781 4 4 4s4-1.781 4-4c0-1.469-0.813-2.75-2-3.438v-13.125c1.188-0.688 2-1.969 2-3.438zM6.406 26c0 1.313-1.094 2.406-2.406 2.406s-2.406-1.094-2.406-2.406 1.094-2.406 2.406-2.406 2.406 1.094 2.406 2.406zM4 8.406c-1.313 0-2.406-1.094-2.406-2.406s1.094-2.406 2.406-2.406 2.406 1.094 2.406 2.406-1.094 2.406-2.406 2.406z"></path>
</svg>
