<svg version="1.1" xmlns="http://www.w3.org/2000/svg" width="32" height="32" viewBox="-1 -2 34 34">
<title>Instagram</title>
<path d="M23.040 32c0 0-14.080 0-14.080 0-4.948 0-8.96-4.012-8.96-8.96 0 0 0-14.080 0-14.080 0-4.948 4.012-8.96 8.96-8.96 0 0 14.080 0 14.080 0 4.948 0 8.96 4.012 8.96 8.96 0 0 0 14.080 0 14.080 0 4.948-4.012 8.96-8.96 8.96zM30.532 8.708c0-3.636-3.595-7.238-7.223-7.238 0 0-3.156-0.188-6.885-0.188-4.176 0-7.83 0.188-7.83 0.188-3.628 0-7.060 3.602-7.060 7.238 0 0-0.094 3.607-0.094 7.716 0 3.828 0.094 7.034 0.094 7.034 0 3.636 3.432 7.074 7.060 7.074 0 0 3.611 0.188 7.643 0.188 3.896 0 7.236-0.188 7.236-0.188 3.628 0 7.060-3.438 7.060-7.074 0 0 0.188-3.206 0.188-7.034 0-4.11-0.188-7.716-0.188-7.716zM25.165 8.685c-1.066 0-1.93-0.865-1.93-1.932s0.864-1.932 1.93-1.932 1.93 0.865 1.93 1.932c0 1.067-0.864 1.932-1.93 1.932zM16 24.275c-4.57 0-8.275-3.705-8.275-8.275s3.705-8.275 8.275-8.275c4.57 0 8.275 3.705 8.275 8.275s-3.705 8.275-8.275 8.275zM16 9.12c-3.8 0-6.88 3.080-6.88 6.88s3.080 6.88 6.88 6.88c3.8 0 6.88-3.080 6.88-6.88s-3.080-6.88-6.88-6.88z"></path>
</svg>
