<svg version="1.1" xmlns="http://www.w3.org/2000/svg" width="32" height="32" viewBox="0 0 32 32">
<title>Instagram Icon</title>
<path d="M22.761 32c0 0-13.523 0-13.523 0-5.102 0-9.239-4.136-9.239-9.239 0 0 0-13.523 0-13.523 0-5.102 4.136-9.239 9.239-9.239 0 0 13.523 0 13.523 0 5.102 0 9.239 4.136 9.239 9.239 0 0 0 13.523 0 13.523 0 5.102-4.136 9.239-9.239 9.239zM28.976 8.819c0-3.247-2.632-5.879-5.879-5.879 0 0-3.41-0.168-6.747-0.168-3.738 0-7.447 0.168-7.447 0.168-3.247 0-5.879 2.632-5.879 5.879 0 0-0.084 3.805-0.084 7.475 0 3.418 0.084 6.719 0.084 6.719 0 3.247 2.632 5.879 5.879 5.879 0 0 3.671 0.168 7.279 0.168 3.487 0 6.915-0.168 6.915-0.168 3.247 0 5.879-2.632 5.879-5.879 0 0 0.168-3.301 0.168-6.719 0-3.67-0.168-7.475-0.168-7.475zM24.53 9.33c-1.066 0-1.93-0.866-1.93-1.935s0.864-1.935 1.93-1.935 1.93 0.867 1.93 1.935c0 1.069-0.864 1.935-1.93 1.935zM16.005 24.28c-4.57 0-8.275-3.705-8.275-8.275s3.705-8.275 8.275-8.275c4.57 0 8.275 3.705 8.275 8.275s-3.705 8.275-8.275 8.275zM16.005 10.59c-2.947 0-5.335 2.386-5.335 5.33s2.388 5.33 5.335 5.33c2.946 0 5.335-2.386 5.335-5.33s-2.389-5.33-5.335-5.33z"></path>
</svg>
