<svg version="1.1" xmlns="http://www.w3.org/2000/svg" width="32" height="32" viewBox="0 0 32 32">
<title>Tumblr Logo</title>
<path d="M13.253 0c-0.577 0-0.833 1.161-0.833 1.161s-0.225 2.999-2 4.642c-2.181 2.020-3.554 2.653-3.833 2.653s-0.667 0.733-0.667 0.995c0 0.261 0 2.594 0 3.15s0.482 0.829 0.833 0.829c0.351 0 2.833 0 2.833 0s0 11.109 0 11.109c0 0 0.607 7.461 7.93 7.461s8.403-3.316 8.403-3.316c0 0 0-3.15 0-3.15s0.032-0.465-0.333-0.829c-0.365-0.363-0.833-0.166-0.833-0.166s-3.086 0.995-4.667 0.995c-1.581 0-2.5-1.517-2.5-2.155s0-9.948 0-9.948c0 0 5.187 0 5.667 0s0.833-0.484 0.833-0.829c0-0.345 0-4.471 0-4.642s-0.362-0.663-1-0.663c-0.638 0-5.5 0-5.5 0s0-6.314 0-6.632c0-0.318-0.499-0.663-0.833-0.663s-3.078 0-3.5 0zM13.753 1.161c0 0 2.667 0 2.667 0s0 6.177 0 6.632c0 0.455 0.305 0.663 0.667 0.663s5.833 0 5.833 0 0 3.813 0 3.813c0 0-5.048 0-5.667 0s-0.833 0.519-0.833 0.829 0 7.518 0 9.948c0 2.43 1.966 3.648 3.5 3.648 0.848 0 0.768 0 1.333 0s3.5-0.995 3.5-0.995c0 0 0 2.819 0 2.819s-1.676 2.321-7.167 2.321c-5.491 0-6.833-5.448-6.833-6.798s0-10.721 0-11.109c0-0.388-0.667-0.663-0.667-0.663s-3 0-3 0c0 0 0-2.487 0-2.487s2.777-1.271 4.5-3.482c1.723-2.21 2.167-5.14 2.167-5.14z"></path>
</svg>
