<svg version="1.1" xmlns="http://www.w3.org/2000/svg" width="32" height="32" viewBox="0 -4 32 32">
<title>Twitter Logo</title>
<path d="M29.809 2.97c0 0 1.394-0.212 2.192-0.547-0.804 2.927-3.82 5.134-3.82 5.134s0.286 9.642-7.504 14.744c-10.949 7.424-21.378-0.496-20.641-1.641 0.941 0.084 6.374-0.268 7.672-1.094-0.395-0.263-2.958-1.126-4.567-5.471 0.729 0.448 1.056 0.348 1.056 0.348 0.025 0.006-2.42-1.103-2.7-6.731 0.109-0.005 1.118 0.698 1.118 0.698s-1.996-2.007 0.811-8.332c2.228 2.268 6.073 6.608 10.935 7.17 0.295-0.201-0.304-3.973 3.842-6.442 3.754-2.235 7.588 0.888 7.588 0.888s4.953-1.512 4.932-1.459c-1.274 3.186-0.913 2.736-0.913 2.736zM25.571 3.204c0 0-2.296-3.18-7.105-1.257-3.73 2.471-2.684 6.442-2.684 6.442s-6.345 0.533-12-6.127c-2.309 5.271 1.737 7.856 1.737 7.856s-1.671-0.081-2.526-0.785c0.119 4.665 4.579 5.813 4.579 5.813s-1.629 0.374-2.526 0c1.743 4.249 5.396 3.941 5.368 3.928-3.155 3.049-8.368 2.514-8.368 2.514s8.907 6.109 18.474-0.628c7.040-4.958 6.632-13.983 6.632-13.983s1.998-1.52 2.842-2.985c-0.657 0.28-3.316 0.943-3.316 0.943s1.482-0.682 2.526-3.142c0.019-0.044-3.632 1.414-3.632 1.414z"></path>
</svg>
