<svg version="1.1" xmlns="http://www.w3.org/2000/svg" width="32" height="32" viewBox="0 0 32 32">
<title>YouTube Logo</title>
<path d="M31.52 23.040c-0.238 1.84-1.925 4.014-4.32 4.32s-5.562 0.48-11.143 0.48c-5.619 0-9.893-0.338-11.257-0.48s-4.074-1.566-4.32-4.32c-0.246-2.754-0.48-3.512-0.48-7.027 0-3.524 0.008-4.025 0.48-7.053s2.927-4.176 4.32-4.32c1.528-0.158 5.616-0.48 11.225-0.48 5.592 0 9.488 0.228 11.175 0.48s4.064 1.732 4.32 4.32c0.256 2.588 0.48 3.559 0.48 7.099 0 3.5-0.274 5.363-0.48 6.981zM30.434 9.626c-0.386-2.382-1.431-3.539-4.018-3.911s-5.193-0.435-10.393-0.435c-5.216 0-8.111 0.224-10.439 0.435s-3.573 0.934-4.018 3.911c-0.444 2.977-0.446 3.195-0.446 6.386 0 3.183 0.114 3.772 0.446 6.363s1.704 3.599 4.018 3.911c2.314 0.312 5.243 0.435 10.469 0.435 5.19 0 7.742-0.079 10.363-0.435s3.64-1.4 4.018-3.911c0.378-2.511 0.446-3.152 0.446-6.321 0-3.205-0.060-4.045-0.446-6.427zM11.84 9.6c0 0 11.36 6.080 11.36 6.080s-11.36 6.080-11.36 6.080c0 0 0-12.16 0-12.16zM12.8 20.16c0 0 8.32-4.48 8.32-4.48s-8.32-4.48-8.32-4.48c0 0 0 8.96 0 8.96z"></path>
</svg>
